<?xml version="1.0" encoding="utf-8"?>
<!-- Generator: Adobe Illustrator 22.0.1, SVG Export Plug-In . SVG Version: 6.00 Build 0)  -->
<svg version="1.0" id="_x3C_Layer_x3E_" xmlns="http://www.w3.org/2000/svg" xmlns:xlink="http://www.w3.org/1999/xlink" x="0px"
	 y="0px" viewBox="0 0 252 252" style="enable-background:new 0 0 252 252;" xml:space="preserve">
<style type="text/css">
	.st0{fill:none;}
	.st1{fill:#111E2B;}
	.st2{fill:#FDFDFE;}
	.st3{display:none;}
	.st4{display:inline;fill:none;}
	.st5{display:inline;fill:#111E2B;}
	.st6{display:inline;fill:#ED3D3C;}
	.st7{display:inline;fill:#C2E3F8;}
	.st8{display:inline;fill:#FAC8D1;}
	.st9{display:inline;fill:#D9EEFA;}
	.st10{display:inline;fill:#FDFDFE;}
</style>
<g>
	<path class="st0" d="M53.8,123.6c-3.5-0.3-6.3-2.4-9.3-3.9c-2-1-3.6-0.7-4.6,0.8c-1,1.3-1.7,2.9-1.7,4.6c0,1.9,0.6,2.5,2.6,2.6
		c3.9,0.1,7.9-1.1,11.7,0.4c0.5,0.2,0.9,0.1,1-0.5c0.3-1.1,0.6-2.1,0.9-3.2C54.5,123.9,54.2,123.6,53.8,123.6z"/>
	<path class="st0" d="M148.1,124.3c-0.8,0.4-1.6,1-2.3,1.5c-0.7,0.4-1.4,0.9-2.2,1.4c-0.4,0.2-0.7,0.4-1.1,0.7c-1,0.6-0.8,1-0.2,1.8
		c0.6,0.7,1.1,1.5,1.7,2.3c0.6,0.8,1.1,1.5,1.7,2.3c0.3,0.4,0.6,0.8,0.9,1.1c0.1,0.2,0.3,0.4,0.4,0.6c0.1,0.1,0.1,0.2,0.2,0.3
		c0,0,0,0.1,0.1,0.1c0,0,0.1,0.1,0.1,0.1c0.2,0.1,0.1-1,0.1-1.1c-0.1-1.1-0.1-2.3-0.1-3.4c0-1.7,0.4-3.4,0.7-5.1
		c0.1-0.5,0.2-0.9,0.3-1.4c0-0.2,0.1-0.4,0.1-0.7C148.4,124.3,148.5,124.1,148.1,124.3z"/>
	<path class="st0" d="M108.5,98.8c0.1-0.1,0.1-0.1,0.2-0.2c0.6-0.5,1.1-1,1.8-1.4l0,0C109.6,97.5,109,98.1,108.5,98.8z"/>
	<path class="st1" d="M233.4,102.9c-6.4-8.1-14.7-11.9-25.2-9.6c-10.4,2.2-16.8,8.4-19,18.8c-0.2,0.9-0.4,1.7-0.6,2.6
		c-1.4-0.8-2.6-1.6-3.9-2.2c-0.9-0.4-1-0.9-0.7-1.7c0.5-1.7,0.9-3.4,0.3-5.3c-0.1-0.2-0.1-0.4-0.2-0.6c-1-3.3-3.9-6.7-7.9-8.5
		c-4-1.9-8.4-1.5-12.2,0.7c-0.8,0.6-1.6,1.2-2.3,1.9c-0.7,0.7-1.4,1.4-2.1,2.1c-0.7,0.7-1.3,1.5-1.9,2.3c-0.6,0.7-1.1,1.4-1.6,2.1
		c-0.4,0.6-0.8,1.1-1.2,1.7c-0.3,0.4-0.5,0.8-0.7,1.2c0,0.1-0.1,0.3-0.2,0.3c-0.1,0-0.1-0.1-0.2-0.2c-0.1-0.1-0.1-0.1-0.1-0.3
		c0,0-0.1-0.2-0.1-0.3c-0.4-0.7-0.7-1.3-1.1-2c-0.1-0.3-0.3-0.6-0.4-0.9c-1.5-2.9-3.8-4.3-5.2-4.9c-0.1,0-0.3-0.1-0.4-0.1
		c-0.6-0.2-1.1-0.4-1.6-0.6c-0.6-0.1-1.1-0.2-1.7-0.3c-2.3-0.2-4.5,0.3-6.6,1.1c-0.4,0.2-0.9,0.4-1.3,0.6c-1.2,0.6-2.6,1-3.9,0.5
		c-0.7-0.2-1.3-0.6-1.8-1s-1-1.1-1.5-1.6c-1.1-1.1-2.4-2-3.9-2.6c-2.1-0.9-4.4-1.1-6.6-1c-4.6,0.1-9.6,2.2-11,7c0,0-1.3,4.2-2.5,1.2
		c-0.7-1.7-2.3-2.9-3.9-3.7c-2.4-1.2-5.4-2.4-8-2.6c-3.3-0.3-6.6,1.2-9.2,3c-2.7,1.8-5.4,3.7-8,5.7c-1.5,1.1-2.9,2.3-4.4,3.5
		c-0.1,0.1-1.8,1.3-1.7,1.4c-0.4-1-0.7-2-1.1-2.9c-1.1-2.9-2.5-5.5-5-7.4c-9.6-7.4-20.2-9.6-31.7-5.6c-11.2,3.9-17.9,12-20.4,23.7
		c-2.4,11.1,0.6,20.7,9.1,28c8.4,7.2,18.5,9.3,29.4,7c6.2-1.3,10.5-4.6,11.6-11.2c0.2-1,0.7-1,1.4-0.8c1.9,0.6,3.9,1.2,5.8,1.8
		c0.7,0.2,1,0.6,1,1.4c0.7,9.4,7.1,12.6,15.1,12.9c5,0.1,9-2.7,11.4-7.3c0.9-1.7,2.6-1.8,3.9-0.4c3.5,4,8.1,5.3,13.1,4.8
		c3.9-0.4,7.3-2.1,9.7-5.7c3.7,6.2,8.1,11.1,15.9,10.6c7.7-0.5,12.4-4.5,13.1-12.7c11.8,15.2,36.3,12.2,44.5-4
		c6,8.6,16.7,12.3,25.6,10.4c13.6-2.9,19.6-11.1,20.4-22.7C242.6,120.3,239.7,110.9,233.4,102.9z M54.4,124.4
		c-0.3,1.1-0.6,2.1-0.9,3.2c-0.1,0.6-0.5,0.7-1,0.5c-3.9-1.5-7.8-0.3-11.7-0.4c-1.9,0-2.6-0.7-2.6-2.6c0-1.7,0.7-3.3,1.7-4.6
		c1.1-1.5,2.6-1.8,4.6-0.8c3,1.5,5.7,3.6,9.3,3.9C54.2,123.6,54.5,123.9,54.4,124.4z M53.7,116.1c-1.6-0.5-2.9-1.6-4.4-2.3
		c-4.1-2.3-8.4-3-12.6-0.3c-4.2,2.6-6.9,9.6-5.7,14.3c0.9,4,4.6,7,8.7,7.3c2.4,0.1,4.7-0.2,7-0.4c1-0.1,2-0.1,2.9,0.2
		c2.3,0.8,3.8,2.3,4.1,4.7c0.3,2.4-0.9,4.2-2.9,5.4c-2.7,1.6-5.8,1.9-8.9,1.9c-6.3-0.1-12.2-1.7-17.1-5.9
		c-9.9-8.3-9.5-21.6-2.6-31.1c0.6-0.8,1.2-1.5,1.8-2.2c4.5-4.9,10.9-7.6,17.6-7.5c5,0,9.7,1.3,13.9,3.9c0.6,0.4,1.2,0.8,1.8,1.2
		c1,0.8,2,1.7,2.7,2.8c1.3,2,1.2,4.4-0.3,6.2C58.3,116.1,56,116.9,53.7,116.1z M99.5,116.2c-1.7,4.7-3.1,9.4-4.7,14.1
		c-0.3,1-0.5,1.6,0.7,2.2c2.3,1.1,3.1,3.2,2.6,5.5c-0.6,2.7-2.4,4.4-5,4.3c-2.1-0.1-2.7,0.8-3.3,2.6c-1.6,4.9-4.5,6.3-9.2,4.6
		c-3.4-1.3-4.6-3.6-3.5-7.1c0.4-1.2,1.7-2.6,0.9-3.6c-0.6-0.9-2.3-0.9-3.6-1.2c-3.4-1.1-6.8-2.1-10.2-3.2c-2.7-1-3.9-2.7-3.6-5.3
		c0.1-1.4,1-2.5,2-3.4c7.7-6.5,15.3-13,23-19.4c1.5-1.3,3.3-1.9,5.3-1.9C97.7,104.4,101.9,109.7,99.5,116.2z M148.3,124.5
		c0,0.2-0.1,0.4-0.1,0.7c-0.1,0.5-0.2,0.9-0.3,1.4c-0.3,1.7-0.6,3.4-0.7,5.1c0,1.1,0,2.3,0.1,3.4c0,0.1,0.1,1.2-0.1,1.1
		c0,0-0.1,0-0.1-0.1c0,0,0-0.1-0.1-0.1c-0.1-0.1-0.1-0.2-0.2-0.3c-0.1-0.2-0.3-0.4-0.4-0.6c-0.3-0.4-0.6-0.8-0.9-1.1
		c-0.6-0.8-1.1-1.5-1.7-2.3c-0.6-0.8-1.1-1.5-1.7-2.3c-0.6-0.8-0.8-1.2,0.2-1.8c0.4-0.2,0.8-0.4,1.1-0.7c0.7-0.4,1.5-0.9,2.2-1.4
		c0.8-0.5,1.5-1,2.3-1.5C148.5,124.1,148.4,124.3,148.3,124.5z M147,115.7c-1.1,1.2-2.4,2.1-3.8,3c-4.1,2.6-8.1,5.1-12.3,7.7
		c3.8,5.3,7.6,10.5,11.4,15.8c1.2,1.7,2.3,3.5,1.7,5.8c-0.5,1.9-1.6,3.2-3.6,3.9c-3.9,1.2-6.7,0.3-9.3-3.3c-2.6-3.6-5-7.3-7.5-11
		c-1.2-1.8-2.4-3.5-3.8-5.6c-0.9,3.7-1.6,7.1-2.4,10.5c-0.6,2.6-2.5,4.4-5,4.9c-3.1,0.5-6.3-0.7-7.6-3c-0.7-1.2-0.9-2.5-0.6-3.9
		c2.7-11.2,5.3-22.3,8-33.5c0.8-3.3,3.9-5.3,7.3-4.7c3.6,0.6,5.6,3.2,5.2,6.8c-0.2,1.4-0.5,2.9-0.9,4.3c-0.3,1.4-0.6,2.9-1,4.7
		c5.3-3.6,10.2-7,15.2-10.3c3-2,5.9-1.9,8.4,0.1C148.9,109.9,149.2,113.2,147,115.7z M186,143.9c-5.7,5.8-16,7.2-23.1,3.2
		c-6.7-3.9-9.7-10.7-7.8-19.2c1.7-7.9,5-15.3,10-21.8c0.8-1.1,1.7-2.1,2.9-2.9c2.9-1.9,7.8-0.3,9.1,2.9c0.4,1,0.3,1.9,0,2.9
		c-0.5,1.5-1.3,2.9-2.1,4.3c-0.9,1.5-1.9,3-2.9,4.7c4.9-0.9,9.1,0.2,12.9,3.2C192.2,127.1,192.7,137.1,186,143.9z M234.7,127.5
		c0,9-3.5,14.7-10.4,17.4c-8.1,3.1-15.5,1.7-21-4.8c-6.8-8.1-9-17.6-6.7-27.8c2.7-11.7,18.2-15.8,26.8-8.9
		c5.8,4.6,8.7,10.8,10.4,17.8C234.4,123.4,234.8,125.6,234.7,127.5z"/>
	<path class="st2" d="M146.3,107.9c-2.4-2-5.4-2.1-8.4-0.1c-5,3.3-9.9,6.7-15.2,10.3c0.4-1.9,0.7-3.3,1-4.7c0.3-1.4,0.7-2.9,0.9-4.3
		c0.4-3.6-1.6-6.1-5.2-6.8c-3.4-0.6-6.6,1.3-7.3,4.7c-2.7,11.2-5.3,22.3-8,33.5c-0.3,1.4-0.2,2.7,0.6,3.9c1.4,2.3,4.5,3.5,7.6,3
		c2.4-0.4,4.3-2.3,5-4.9c0.8-3.4,1.6-6.7,2.4-10.5c1.4,2,2.6,3.8,3.8,5.6c2.5,3.7,4.9,7.4,7.5,11c2.6,3.6,5.5,4.5,9.3,3.3
		c2-0.6,3.1-1.9,3.6-3.9c0.6-2.3-0.4-4.1-1.7-5.8c-3.7-5.3-7.6-10.5-11.4-15.8c4.2-2.6,8.3-5.1,12.3-7.7c1.4-0.9,2.7-1.7,3.8-3
		C149.2,113.2,148.9,109.9,146.3,107.9z"/>
	<path class="st2" d="M223.4,103.3c-8.6-6.9-24.1-2.8-26.8,8.9c-2.3,10.3-0.1,19.8,6.7,27.8c5.4,6.5,12.8,7.9,21,4.8
		c7-2.7,10.4-8.3,10.4-17.4c0.1-1.8-0.2-4.1-0.8-6.4C232.2,114.1,229.2,107.9,223.4,103.3z M218.8,134.9c-2.1,0.7-4.1,0-5.6-2.2
		c-2.1-3.1-2.8-6.8-3.7-10.3c-0.5-1.8-1-3.6-0.9-5.4c0-0.7,0-1.4,0.1-2c0.6-3.4,4.3-4.8,6.9-2.7c0.7,0.5,1.3,1.2,1.6,2
		c2.5,5,4.1,10.3,4.4,15.8C221.8,132.6,220.7,134.3,218.8,134.9z"/>
	<path class="st2" d="M184.7,121.2c-3.7-3-7.9-4-12.9-3.2c1-1.7,2-3.2,2.9-4.7c0.9-1.4,1.6-2.7,2.1-4.3c0.3-1,0.4-1.9,0-2.9
		c-1.3-3.2-6.3-4.8-9.1-2.9c-1.1,0.7-2,1.8-2.9,2.9c-4.9,6.6-8.2,13.8-10,21.8c-1.9,8.5,1.1,15.4,7.8,19.2c7.1,4,17.4,2.6,23.1-3.2
		C192.7,137.1,192.2,127.1,184.7,121.2z M172.8,137.6c-2.6,0.1-4.7-2-4.8-4.8c-0.1-2.5,1.8-4.4,4.4-4.5c2.7-0.1,4.7,2,4.7,5
		C177.2,135.8,175.5,137.5,172.8,137.6z"/>
	<path class="st2" d="M90.9,104.3c-2,0-3.8,0.6-5.3,1.9c-7.7,6.4-15.4,12.9-23,19.4c-1,0.9-1.9,2-2,3.4c-0.3,2.5,0.9,4.3,3.6,5.3
		c3.4,1.1,6.8,2.1,10.2,3.2c1.2,0.4,3,0.4,3.6,1.2c0.7,1-0.6,2.4-0.9,3.6c-1.1,3.5,0.1,5.9,3.5,7.1c4.7,1.7,7.6,0.3,9.2-4.6
		c0.6-1.7,1.2-2.7,3.3-2.6c2.6,0.2,4.4-1.6,5-4.3c0.6-2.3-0.3-4.4-2.6-5.5c-1.3-0.6-1.1-1.2-0.7-2.2c1.6-4.7,3-9.5,4.7-14.1
		C101.9,109.7,97.7,104.4,90.9,104.3z M82.4,127.7c-0.2,0.7-0.7,0.5-1.1,0.3c-1-0.3-2.1-0.6-2.9-0.8c2.1-2.2,4.2-4.4,6.6-6.9
		C84,123,83.2,125.4,82.4,127.7z"/>
	<path class="st2" d="M60.1,108c-0.7-1.1-1.6-2-2.7-2.8c-0.6-0.4-1.2-0.8-1.8-1.2c-4.2-2.6-8.9-3.9-13.9-3.9c-6.7,0-13,2.6-17.6,7.5
		c-0.6,0.7-1.3,1.4-1.8,2.2c-6.9,9.6-7.3,22.8,2.6,31.1c4.9,4.1,10.8,5.7,17.1,5.9c3.1,0.1,6.2-0.2,8.9-1.9c2-1.2,3.1-3,2.9-5.4
		c-0.3-2.4-1.9-3.9-4.1-4.7c-1-0.3-2-0.3-2.9-0.2c-2.3,0.1-4.7,0.6-7,0.4c-4.2-0.3-7.8-3.2-8.7-7.3c-1.1-4.8,1.6-11.7,5.7-14.3
		c4.2-2.7,8.4-1.9,12.6,0.3c1.4,0.8,2.8,1.8,4.4,2.3c2.3,0.7,4.6,0,6.1-1.9C61.3,112.4,61.4,110.1,60.1,108z"/>
	<path class="st1" d="M217.3,114.2c-0.4-0.7-1-1.4-1.6-2c-2.6-2.1-6.4-0.7-6.9,2.7c-0.1,0.7-0.1,1.3-0.1,2c-0.1,1.9,0.4,3.7,0.9,5.4
		c1,3.6,1.6,7.2,3.7,10.3c1.5,2.2,3.5,2.9,5.6,2.2c1.9-0.6,3-2.3,2.9-4.9C221.4,124.5,219.7,119.2,217.3,114.2z"/>
	<path class="st1" d="M172.4,128.4c-2.6,0.1-4.5,2-4.4,4.5c0.1,2.8,2.3,4.9,4.8,4.8c2.7-0.1,4.4-1.8,4.3-4.3
		C177.1,130.3,175.1,128.3,172.4,128.4z"/>
	<path class="st1" d="M81.2,128.1c0.5,0.1,0.9,0.3,1.1-0.3c0.8-2.3,1.6-4.7,2.5-7.4c-2.4,2.5-4.4,4.7-6.6,6.9
		C79.1,127.5,80.2,127.7,81.2,128.1z"/>
</g>
<g class="st3">
	<path class="st4" d="M-1780.2,708.7c1.3-0.1,2.6-0.2,3.8-0.3c8.1-0.8,16.1-1.9,23.8-3.1c-4.8,0.7-9.6,1.3-14.4,1.9
		C-1771.3,707.8-1775.8,708.3-1780.2,708.7z"/>
	<path class="st5" d="M-1672.1,646.6c-0.4-8.9-2.5-17.7-9.8-23.7c-3.9-3.2-2.8-5.1-0.8-8.5c23-38.8,31.7-80,21.6-124.8
		c-6.8-30.1-19.9-56.5-41.3-78.8c-2-2.1-1.6-3.6-0.3-6c8.1-15,8-30.1-2.5-44.9c-8.1-11.4-19.4-16.8-32.8-18.5
		c-16.9-2.2-31.5,2.6-43.1,15.3c-2.4,2.6-4.3,2.2-6.9,1.5c-22.1-6.4-44.5-10.9-67.5-11.7c-25.3-0.8-49.9,3.8-74.2,10.5
		c-2.6,0.7-5.3,1.6-8,1.3c-1.1-0.1-2.2-0.5-3.1-1.2c-1-0.7-1.7-1.8-2.5-2.7c-0.8-0.9-1.7-1.8-2.6-2.6c-4.7-4.1-10.4-6.8-16.3-8.6
		c-5-1.6-10.3-2.4-15.6-2.4c-5.3,0-10.6,0.8-15.6,2.4c-5.1,1.6-10,4.1-14.3,7.3c-16.6,12.2-22.9,33.5-12.7,52.6
		c2.6,4.9,1.9,7.1-1.4,10.7c-29.8,32.2-43.6,71-43.3,114.1c0.2,31.3,9.2,60.9,26.6,87.5c1,1.4,3.7,3,0.4,5.2
		c-9.5,6.5-12.7,16.4-13,27.2c-0.4,11.6-0.4,23.3,0,35c0.3,6.9,1.8,13.8,6.5,19.4c4.6,5.6,10.6,9.2,17.3,11.2c0,0,21.2,4.7,56.2,9
		c6.6,0.8,13.7,1.6,21.2,2.4c13.2,1.3,27.8,2.5,43.5,3.4c10.8,0.6,22.1,1,33.9,1.3c12.2,0.2,24.9,0.2,37.9-0.1
		c5.8-0.1,11.6-0.3,17.5-0.6c17.8-0.8,36.2-2.1,55-4.3c9-1,18-2.2,27.1-3.6c3.2-0.5,6.5-1,9.7-1.5h0.1l0,0
		c6.4-1.1,12.8-2.2,19.2-3.4c2.1-0.5,4.2-0.8,6.3-1.4c17.1-4.6,28-15.4,27.7-35C-1672.1,668.6-1671.6,657.6-1672.1,646.6z
		 M-2036.5,544.3c-6-52.1,11.2-95.2,50.8-129.5c0.8-0.7,1.6-1.2,3.1-2.4c-8.2-3.9-13.5-9.5-17.6-16.6c-6.8-11.6-2-24.2,6.3-30.2
		c12.6-9.1,30.8-6.1,39.9,6.8c2.8,4,4.8,8.4,6.6,12.8c1.3,3.3,2.5,4,6.1,2.5c27.3-11.9,56-17,85.6-16.3c25.7,0.6,50.6,5.4,74.3,15.6
		c3.6,1.6,5.5,1.3,7-2.6c3.2-8.1,7.7-15.4,15.6-20.1c15.5-9.2,36.1-1.8,39.8,15c2.6,11.9-3.9,20.3-11.8,27.9
		c-0.2,0.2-0.5,0.4-0.8,0.6c-1.8,1.9-5.8,2.1-5.8,4.7c0,0.3,0.1,0.6,0.3,1c0.2,0.3,0.5,0.6,0.8,1l0,0c0.3,0.3,0.6,0.6,0.9,0.8
		c0.1,0,3,2.2,4.4,3.7l0,0c0.7,0.6,1.3,1.2,2,1.8c0.6,0.5,1.1,1.1,1.7,1.6s1.1,1.1,1.7,1.6c6.6,6.5,12.5,13.4,17.5,20.9
		c0,0.1,0.1,0.1,0.1,0.2c3.3,4.9,6.3,10,8.9,15.3c1.1,2.3,2.2,4.7,3.3,7.1c2.7,6.4,4.9,13,6.6,19.9c11.3,45.4,3.9,87.4-24.4,125.3
		c-2.4,3.3-5.4,4.6-9,5.4c-33.1,7-66.6,11-100.4,13c-43.5,2.5-86.9,0.6-130.1-5c-15.8-2-31.6-4.7-47.2-8c-2.8-0.6-4.8-1.8-6.5-4.1
		c-4.2-5.8-8.8-11.3-11.8-17.8C-2028.7,580.3-2034.4,562.9-2036.5,544.3z M-1694.3,685.5c0,0.2,0,0.4-0.1,0.6
		c-0.5,4-3.2,6.2-6.6,7.6c-5.7,2.4-11.6,4-17.6,5.2c-11,2.8-22.4,4.7-33.7,6.3c-0.1,0-0.1,0-0.2,0c-7.7,1.2-15.7,2.2-23.8,3.1
		c-1.3,0.1-2.5,0.2-3.8,0.3c-15,1.3-30,1.7-45.1,2c-0.9,0-1.8,0-2.7,0c-0.5,0-1.1,0-1.7,0c-1.4,0-2.9,0.1-4.3,0.1
		c-5.8,0.1-11.6,0.1-17.5,0.1c-1.5,0-3.1,0-4.6,0c-9.4-0.1-18.8-0.3-28.3-0.6c-0.8,0-1.5,0-2.3-0.1c-0.9,0-1.9-0.1-2.8-0.1
		c-3.9-0.1-7.9-0.3-11.8-0.5c-1.2-0.1-2.4-0.1-3.5-0.2c-0.7,0-1.4-0.1-2-0.1c-1.3-0.1-2.7-0.1-4-0.2c-1.3-0.1-2.6-0.1-3.9-0.2
		c-2.5-0.1-5.1-0.3-7.6-0.5c-2.8-0.2-5.6-0.4-8.3-0.6c-0.4,0-0.8-0.1-1.2-0.1c-0.6,0-1.3-0.1-2-0.2c-1.3-0.1-2.6-0.2-3.9-0.3
		c-7.5-0.6-15-1.3-22.4-2c-1.8-0.2-3.5-0.4-5.2-0.5c-0.5-0.1-1-0.1-1.5-0.2c-3.5-0.4-6.6-0.7-9.3-1.1c0,0,0,0-0.1,0
		c-7.4-0.9-11.8-1.5-12.5-1.6c-0.1,0-0.1,0-0.1,0c-6.5-1.4-13.1-2.7-19.7-4.1c-2.2-0.5-4.4-0.9-6.5-1.4c-2.3-0.5-4.5-1.3-6.6-2.2
		c-4.9-2-7.8-5.2-7.3-11c0.1-1.5,0.2-3,0.2-4.5c0.1-4.5-0.1-9-0.1-13.5c0-5,0-10,0-15c0-1.7,0-3.3,0-5c0.1-8,5.4-11.9,13.2-10.1
		c38.5,9,77.5,14.2,117,16.4c38,2,75.9,1.1,113.8-3.1c26.1-2.9,52.1-7,77.6-13.4c7.5-1.8,12.6,1.8,12.7,9.4c0.1,13.5,0,27,0.1,40.5
		C-1694.3,685-1694.3,685.2-1694.3,685.5z"/>
	<path class="st6" d="M-1694.4,644.3c-0.1-7.6-5.3-11.3-12.7-9.4c-25.5,6.4-51.5,10.5-77.6,13.4c-37.8,4.2-75.7,5.1-113.8,3.1
		c-39.5-2.1-78.5-7.3-117-16.4c-7.8-1.8-13.1,2.1-13.2,10.1c0,1.7,0,3.3,0,5c0,5,0,10,0,15c0,4.5,0.2,9,0.1,13.5
		c0,1.5-0.1,3-0.2,4.5c-0.5,5.9,2.4,9.1,7.3,11c2.2,0.9,4.4,1.7,6.6,2.2s4.4,0.9,6.5,1.4c6.6,1.4,13.1,2.8,19.7,4.1c0,0,0,0,0.1,0
		c0.7,0.1,5.1,0.7,12.5,1.6h0.1c2.7,0.3,5.8,0.7,9.3,1.1c0.5,0.1,1,0.1,1.5,0.2c1.7,0.2,3.4,0.4,5.2,0.5c7.5,0.8,15,1.4,22.4,2
		c1.3,0.1,2.6,0.2,3.9,0.3c0.6,0,1.3,0.1,2,0.2c0.4,0,0.8,0.1,1.2,0.1c2.7,0.2,5.4,0.4,8.3,0.6c2.5,0.2,5.1,0.3,7.6,0.5
		c1.3,0.1,2.6,0.2,3.9,0.2c1.3,0.1,2.7,0.2,4,0.2c0.7,0,1.4,0.1,2,0.1c1.2,0.1,2.4,0.1,3.5,0.2c3.9,0.2,7.9,0.4,11.8,0.5
		c0.9,0,1.9,0.1,2.8,0.1c0.8,0,1.5,0.1,2.3,0.1c9.4,0.3,18.8,0.5,28.3,0.6c1.5,0,3,0,4.6,0c5.8,0,11.6,0,17.5-0.1
		c1.4,0,2.9,0,4.3-0.1c0.5,0,1.1,0,1.7,0c0.9,0,1.8,0,2.7,0c15-0.3,30.1-0.7,45.1-2c4.4-0.4,8.8-0.9,13.2-1.4
		c4.8-0.6,9.6-1.2,14.4-1.9c0.1,0,0.1,0,0.2,0c11.3-1.6,22.7-3.5,33.7-6.3c6-1.2,12-2.8,17.6-5.2c3.4-1.4,6.1-3.7,6.6-7.6
		c0-0.2,0.1-0.4,0.1-0.6c0-0.2,0-0.5,0-0.7C-1694.4,671.3-1694.2,657.8-1694.4,644.3z"/>
	<path class="st7" d="M-1748.6,398.2c8.3,0.1,15.9-7.1,16.1-15.2c0.1-5.7-3.7-9.8-9.4-9.8c-9.5-1.3-16.8,8.7-16.6,15.5
		C-1758.4,394.3-1754.5,398.2-1748.6,398.2z"/>
	<path class="st8" d="M-1764.1,483.3c4.3,1.9,8.7,3.1,13.8,2.9c4.6,0.3,9.3-0.9,13.7-2.9c1.9-0.9,4-2.2,4-4.6c0-2.2-1.9-3.5-3.7-4.3
		c-9.4-4.5-18.8-4.4-28.2,0.1c-1.8,0.9-3.7,2.2-3.6,4.4C-1768.1,481.1-1766.1,482.5-1764.1,483.3z"/>
	<path class="st5" d="M-1819.3,449.1c4.7,0.1,9-3.7,9-8.1s-3.6-8-8.4-8.1c-4.9-0.2-9,3.5-9,8C-1827.7,445.2-1823.8,449-1819.3,449.1
		z"/>
	<path class="st5" d="M-1868.2,508.3c1.1,0.3,2.7,0.4,2.6,1.8c-0.5,4,2,8.5-2.2,12c-3.1,2.6-2.5,6,0.7,8.4c3.5,2.6,9.3,2.6,12.6-0.2
		c2.9-2.5,3.6-5.7,0.5-8.1c-3.3-2.5-1.9-5.6-2.5-8.5c-1-4.7,2.2-5.4,5.4-6.6c2.7-1,5-2.6,7-4.6c5.9-5.9,5.2-12.5-2.1-16.9
		c-0.6-0.4-1.1-0.7-1.7-0.9c-0.8-0.4-1.6-0.7-2.4-1c-3.4-1.2-7.1-1.5-10.8-1.5c-4.4,0-8.8,0.4-12.8,2.2c-0.6,0.3-1.1,0.5-1.7,0.9
		c-7.3,4.1-8.2,11.5-2.4,17.4C-1875.2,505.4-1871.9,507.2-1868.2,508.3z"/>
	<path class="st7" d="M-1803.3,519.7c2.5,20.3-2.3,38.3-14.6,54.6c-19.1,25.5-56.4,33.8-84.1,16.9c-0.9-0.6-1.7-1.1-2.5,0.1
		c16.2,14.5,35.3,19.8,56.3,15.5c33-6.7,53.4-34.9,54.7-66.7c0.5-13.2-2.3-25.8-7.5-37.8c-0.9-2-1.8-4-2.8-6c-0.6-1.3-1.3-2.6-2-3.9
		s-1.4-2.6-2.2-3.8c-2.8-4.6-5.9-8.9-9.7-12.7c0-0.1-0.1-0.1-0.1-0.2c-1-1.1-3.1-3.1-4.8-4.8c-0.6-0.6-1.2-1.2-1.8-1.8
		c-0.5-0.5-0.9-0.9-0.9-0.9l0.1,0.1l5.6,8.1C-1811.1,489.7-1805.2,503.8-1803.3,519.7z"/>
	<path class="st5" d="M-1904.4,449.1c4.7,0.1,9-3.7,9-8.2c0-4.4-3.7-8-8.4-8.1c-4.9-0.1-9,3.5-9,8.1
		C-1912.8,445.2-1908.9,449-1904.4,449.1z"/>
	<path class="st9" d="M-1904.5,591.2c0.8-1.1,1.6-0.6,2.5-0.1c27.8,16.9,65,8.6,84.1-16.9c12.3-16.3,17.1-34.2,14.6-54.6
		c-1.9-15.9-7.9-30-16.4-43.2l-5.6-8.1c-0.3-0.2-0.5-0.5-0.8-0.7c-3.4-2.9-7-5.4-10.8-7.4c-2-1.1-4.1-2-6.3-2.8
		c-5.1-1.9-10.6-3-16.5-3.3c-16-0.8-29.4,6.1-40.1,17c-21.1,21.4-31.8,47.1-27.6,77.6C-1925.1,565.7-1917.4,580-1904.5,591.2z
		 M-1875.6,485.2c0.6-0.3,1.1-0.6,1.7-0.9c4-1.8,8.4-2.2,12.8-2.2c3.7,0,7.3,0.3,10.8,1.5c0.8,0.3,1.6,0.6,2.4,1
		c0.6,0.3,1.2,0.6,1.7,0.9c7.2,4.4,8,11,2.1,16.9c-2,2-4.4,3.7-7,4.6c-3.1,1.2-6.4,1.8-5.4,6.6c0.6,2.9-0.8,6,2.5,8.5
		c3.1,2.4,2.4,5.6-0.5,8.1c-3.3,2.8-9.1,2.9-12.6,0.2c-3.2-2.5-3.8-5.8-0.7-8.4c4.3-3.6,1.7-8,2.2-12c0.2-1.4-1.5-1.5-2.6-1.8
		c-3.7-1.1-7-2.9-9.8-5.7C-1883.8,496.7-1882.9,489.3-1875.6,485.2z"/>
	<path class="st8" d="M-1987.4,483.2c9.2,4.6,18.7,4.2,27.9-0.1c4.4-2.1,4.4-6.6,0-8.8c-4.3-2.2-8.9-3.6-13.6-3
		c-5.2-0.3-9.9,0.5-14.2,2.9C-1992.6,477.1-1992.8,480.5-1987.4,483.2z"/>
	<path class="st10" d="M-1987.8,609.7c14.3,2.5,28.7,4.7,43.1,6.6c15.6,2.2,31.2,3.9,46.9,4.6c18.4,0.7,36.8,2.8,55.2,0.5
		c7.4-0.9,14.9-0.4,22.4-1.1c21.2-2,42.7-3,63.2-9.2c18-5.4,32.4-15.5,41.1-32.9c8.4-17,13.8-34.6,15.6-53.6
		c2.6-26.7-2.3-51.9-13.2-76c-4.1-9.2-9.8-17.7-15.9-25.8c0,0-4.8-6.3-6-7.5l0,0c-0.3-0.3-0.7-0.6-0.9-0.8l0,0
		c-0.3-0.3-0.6-0.6-0.8-1c-0.2-0.3-0.3-0.6-0.3-1c0-2.6,4-2.8,5.8-4.7c0.2-0.2,0.5-0.4,0.8-0.6c7.9-7.6,14.5-16.1,11.8-27.9
		c-3.8-16.7-24.3-24.2-39.8-15c-7.9,4.7-12.4,11.9-15.6,20.1c-1.6,3.9-3.4,4.2-7,2.6c-23.7-10.2-48.6-15-74.3-15.6
		c-29.7-0.7-58.3,4.4-85.6,16.3c-3.6,1.5-4.8,0.8-6.1-2.5c-1.8-4.4-3.8-8.8-6.6-12.8c-9.1-12.9-27.2-15.9-39.9-6.8
		c-8.3,6-13.1,18.5-6.3,30.2c4.2,7.1,9.5,12.7,17.6,16.6c-1.5,1.2-2.3,1.7-3.1,2.4c-39.6,34.3-56.8,77.4-50.8,129.5
		c2.1,18.5,7.8,36,17.9,51.9C-2008.9,601.8-1999.2,607.6-1987.8,609.7z M-1741.9,373.2c5.7,0.1,9.5,4.1,9.4,9.8
		c-0.2,8.1-7.8,15.3-16.1,15.2c-5.9,0-9.8-3.9-9.9-9.5C-1758.7,381.9-1751.4,371.9-1741.9,373.2z M-1764.7,474.4
		c9.4-4.5,18.8-4.5,28.2-0.1c1.8,0.8,3.7,2.2,3.7,4.3c0,2.4-2,3.8-4,4.6c-4.4,2-9,3.2-13.7,2.9c-5,0.2-9.5-1-13.8-2.9
		c-2-0.9-4-2.2-4.1-4.6C-1768.4,476.6-1766.4,475.2-1764.7,474.4z M-1818.7,432.9c4.8,0.2,8.4,3.7,8.4,8.1s-4.3,8.3-9,8.1
		c-4.5-0.2-8.4-4-8.4-8.2C-1827.7,436.3-1823.6,432.7-1818.7,432.9z M-1903.8,432.9c4.7,0.2,8.5,3.8,8.4,8.1c0,4.4-4.3,8.3-9,8.2
		c-4.5-0.1-8.4-4-8.4-8.2C-1912.8,436.3-1908.7,432.7-1903.8,432.9z M-1899.7,471.3c10.7-10.9,24-17.8,40.1-17
		c5.9,0.3,11.4,1.4,16.5,3.3c2.2,0.8,4.2,1.7,6.3,2.8c3.8,2,7.4,4.5,10.8,7.4c0.3,0.2,0.5,0.5,0.8,0.7l-0.1-0.1c0,0,0.3,0.3,0.9,0.9
		s1.2,1.2,1.8,1.8c1.7,1.7,3.8,3.7,4.8,4.8c0.1,0.1,0.1,0.1,0.1,0.2c3.8,3.9,7,8.2,9.7,12.7c0.8,1.3,1.5,2.5,2.2,3.8s1.4,2.6,2,3.9
		c1,2,1.9,4,2.8,6c5.3,12,8.1,24.6,7.5,37.8c-1.3,31.7-21.8,60-54.7,66.7c-21,4.2-40.1-1-56.3-15.5c-12.9-11.3-20.6-25.6-22.9-42.4
		C-1931.5,518.4-1920.8,492.6-1899.7,471.3z M-1988.5,382.8c0-6,4.1-9.7,10.7-9.6c8.1,0.1,15.4,7.4,15.3,15.2
		c-0.1,6.1-3.9,9.8-10.1,9.8C-1980.6,398.2-1988.4,390.6-1988.5,382.8z M-1987.4,474.2c4.3-2.5,9-3.2,14.2-2.9
		c4.7-0.6,9.3,0.8,13.6,3c4.4,2.2,4.4,6.8,0,8.8c-9.2,4.3-18.7,4.6-27.9,0.1C-1992.8,480.5-1992.6,477.1-1987.4,474.2z"/>
	<path class="st7" d="M-1962.5,388.4c0.1-7.9-7.2-15.2-15.3-15.2c-6.6-0.1-10.8,3.6-10.7,9.6c0.1,7.8,7.9,15.4,15.9,15.4
		C-1966.4,398.2-1962.6,394.5-1962.5,388.4z"/>
	<path class="st7" d="M-1729.4,422.8c6.1,8.1,11.8,16.6,15.9,25.8c10.9,24.1,15.8,49.3,13.2,76c-1.9,19-7.2,36.6-15.6,53.6
		c-8.6,17.4-23.1,27.5-41.1,32.9c-20.6,6.2-42,7.2-63.2,9.2c-7.5,0.7-15,0.2-22.4,1.1c-18.5,2.3-36.9,0.2-55.2-0.5
		c-15.7-0.6-31.3-2.4-46.9-4.6c-14.4-2-28.8-4.1-43.1-6.6c-11.4-2-21.1-7.8-30.8-13.4c3,6.5,7.6,12.1,11.8,17.8
		c1.7,2.3,3.8,3.5,6.5,4.1c15.6,3.3,31.4,5.9,47.2,8c43.2,5.6,86.6,7.5,130.1,5c33.8-1.9,67.3-5.9,100.4-13c3.7-0.8,6.6-2.2,9-5.4
		c28.3-37.9,35.7-79.9,24.4-125.3c-1.7-6.9-3.9-13.6-6.6-19.9c-1-2.4-2.1-4.7-3.3-7.1c-2.6-5.3-5.6-10.4-8.9-15.3
		c0-0.1-0.1-0.1-0.1-0.2c-5.1-7.4-10.9-14.4-17.5-20.9c-0.6-0.5-1.1-1.1-1.7-1.6s-1.1-1-1.7-1.6c-0.7-0.6-1.3-1.2-2-1.8l0,0
		c-1.5-1.6-4.4-3.7-4.4-3.7l0,0C-1734.2,416.5-1729.4,422.8-1729.4,422.8z"/>
</g>
</svg>
